<?xml version="1.0" encoding="UTF-8"?>
<svg xmlns="http://www.w3.org/2000/svg" width="512" height="512" viewBox="0 0 512 512"><g><g><path d="M255.83,432H168a40,40,0,0,1-40-40V56a40,40,0,0,1,40-40H328a40,40,0,0,1,40,40V306.14" fill="#57a4ff"/><polygon points="280 40 216 40 208 16 288 16 280 40" fill="#57565c"/><path d="M376,320V424l-16,16v56H264l.12-56-15.98-15.43-43-80.28a16,16,0,1,1,27.72-16L248,358.51V232a16,16,0,1,1,32,0v64a16,16,0,1,1,32,0v8a16,16,0,1,1,32,0v16a16,16,0,1,1,32,0Z" fill="#ffdaaa"/></g><g><path d="M376.97,303.01c-.32-.31-.64-.61-.97-.91V56A48.051,48.051,0,0,0,328,8H168a48.051,48.051,0,0,0-48,48V392a48.051,48.051,0,0,0,48,48h84.6l3.51,3.39L256,495.98a8.006,8.006,0,0,0,8,8.02h96a8,8,0,0,0,8-8V443.31l13.66-13.65A8.008,8.008,0,0,0,384,424V320A23.924,23.924,0,0,0,376.97,303.01ZM276.9,24l-2.67,8H221.77l-2.67-8ZM168,424a32.042,32.042,0,0,1-32-32V56a32.042,32.042,0,0,1,32-32h34.23l6.18,18.53A8,8,0,0,0,216,48h64a8,8,0,0,0,7.59-5.47L293.77,24H328a32.042,32.042,0,0,1,32,32V296a23.958,23.958,0,0,0-8.83,1.68,24.014,24.014,0,0,0-34.93-14.6,24.727,24.727,0,0,0-3.27-4.07A24.045,24.045,0,0,0,288,273.37V232a24,24,0,0,0-48,0v92.68c-.07-.13-.13-.26-.21-.38a24,24,0,0,0-41.65,23.87L238.76,424Zm200-3.31-13.66,13.65A8.008,8.008,0,0,0,352,440v48H272.02l.1-47.98a8.024,8.024,0,0,0-2.44-5.77L254.6,419.69l-42.41-79.18-.12-.21a8.033,8.033,0,0,1,2.94-10.95,7.868,7.868,0,0,1,3.98-1.07,8.031,8.031,0,0,1,6.84,3.84l15.02,29.97A8,8,0,0,0,256,358.51V232a8.011,8.011,0,0,1,8-8,7.989,7.989,0,0,1,8,8V336a8,8,0,0,0,16,0V296a8.011,8.011,0,0,1,8-8,7.989,7.989,0,0,1,8,8v40a8,8,0,0,0,16,0V304a8.011,8.011,0,0,1,8-8,7.989,7.989,0,0,1,8,8v32a8,8,0,0,0,16,0V320a8.011,8.011,0,0,1,8-8,7.989,7.989,0,0,1,8,8Z"/><path d="M171.314,176H216a8,8,0,0,0,0-16H171.314l18.343-18.343a8,8,0,0,0-11.314-11.314l-32,32a8,8,0,0,0,0,11.314l32,32a8,8,0,0,0,11.314-11.314Z"/><path d="M280,176h44.686l-18.343,18.343a8,8,0,0,0,11.314,11.314l32-32a8,8,0,0,0,0-11.314l-32-32a8,8,0,0,0-11.314,11.314L324.686,160H280a8,8,0,0,0,0,16Z"/></g></g></svg>
